HIERARCHY
ROOT root     
{
	OFFSET 0.0000 0.0000 0.0000
	CHANNELS 6 Xposition Yposition Zposition Zrotation Yrotation Xrotation
	JOINT pelvis   
	{
		OFFSET 0.0000 0.0000 0.0000
		CHANNELS 3 Zrotation Yrotation Xrotation
		JOINT thorax   
		{
			OFFSET 0.0000 23.0750 -5.0000
			CHANNELS 3 Zrotation Yrotation Xrotation
			JOINT rclavicle
			{
				OFFSET 0.0000 28.0009 0.0000
				CHANNELS 3 Zrotation Yrotation Xrotation
				JOINT rhumerus 
				{
					OFFSET -18.5725 5.5939 0.0000
					CHANNELS 3 Zrotation Yrotation Xrotation
					JOINT rradius  
					{
						OFFSET -24.8459 0.0000 0.0000
						CHANNELS 3 Zrotation Yrotation Xrotation
						JOINT rhand    
						{
							OFFSET -24.5477 0.0000 0.0000
							CHANNELS 3 Zrotation Yrotation Xrotation
							End Site
							{
								OFFSET -8.1826 0.0000 0.0000
							}
						}
					}
				}
			}
			JOINT lclavicle
			{
				OFFSET 0.0000 28.0009 0.0000
				CHANNELS 3 Zrotation Yrotation Xrotation
				JOINT lhumerus 
				{
					OFFSET 18.5725 5.5939 0.0000
					CHANNELS 3 Zrotation Yrotation Xrotation
					JOINT lradius  
					{
						OFFSET 24.8459 0.0000 0.0000
						CHANNELS 3 Zrotation Yrotation Xrotation
						JOINT lhand    
						{
							OFFSET 24.5477 0.0000 0.0000
							CHANNELS 3 Zrotation Yrotation Xrotation
							End Site
							{
								OFFSET 8.1826 0.0000 0.0000
							}
						}
					}
				}
			}
			JOINT head     
			{
				OFFSET 0.0000 35.2030 0.0000
				CHANNELS 3 Zrotation Yrotation Xrotation
				End Site
				{
					OFFSET 0.0000 11.7343 0.0000
				}
			}
		}
		JOINT rfemur   
		{
			OFFSET -8.2817 0.0000 0.0000
			CHANNELS 3 Zrotation Yrotation Xrotation
			JOINT rtibia   
			{
				OFFSET 0.0000 -43.3627 0.0000
				CHANNELS 3 Zrotation Yrotation Xrotation
				JOINT rfoot    
				{
					OFFSET 0.0000 -38.2947 0.0000
					CHANNELS 3 Zrotation Yrotation Xrotation
					JOINT rtoes    
					{
						OFFSET 0.0000 0.0000 16.6054
						CHANNELS 3 Zrotation Yrotation Xrotation
						End Site
						{
							OFFSET 0.0000 0.0000 5.5351
						}
					}
				}
			}
		}
		JOINT lfemur   
		{
			OFFSET 8.2817 0.0000 0.0000
			CHANNELS 3 Zrotation Yrotation Xrotation
			JOINT ltibia   
			{
				OFFSET 0.0000 -43.3627 0.0000
				CHANNELS 3 Zrotation Yrotation Xrotation
				JOINT lfoot    
				{
					OFFSET 0.0000 -38.2947 0.0000
					CHANNELS 3 Zrotation Yrotation Xrotation
					JOINT ltoes    
					{
						OFFSET 0.0000 0.0000 16.6054
						CHANNELS 3 Zrotation Yrotation Xrotation
						End Site
						{
							OFFSET 0.0000 0.0000 5.5351
						}
					}
				}
			}
		}
	}
}
MOTION
Frames: 17
Frame Time: .0333333
-120.03 73.648 -3.8026 -54.75 86.1334 -24.1616 0 -0 0 -10.1814 3.14832 15.1358 16.3435 -14.9613 -5.59855e-05 52.492 -14.3035 27.4379 -180 69.0513 -180 0.478702 4.12247 0.0172001 -8.22368 19.6476 2.1707e-06 -55.9293 36.5298 18.8539 3.78786e-05 -89.7594 -3.8464e-05 -1.88289 2.46563 -0.0405006 1.65819 -3.34998 -13.3287 1.03412 -7.08541 -7.06902 -0 -0 38.8567 -6.90375e-08 2.26512 6.05772 0.239194 4.36216e-06 -87.323 -13.1418 8.95703 -81.0715 -0 -0 47.6222 3.66928e-06 11.224 10.6016 2.09088 -2.87464e-06 -9.53616 
-118.93 73.533 -3.8787 -57.2288 86.2597 -26.6582 0 -0 0 -10.6742 2.95639 15.4663 16.7191 -14.7595 1.90693e-05 52.9837 -14.3356 27.2672 -180 69.3226 -180 0.438407 4.18863 0.0160001 -8.6341 19.1748 9.4864e-05 -56.1057 35.2323 17.8899 -4.34705e-06 -89.2501 4.29365e-06 -1.53764 2.56787 -0.0344983 1.75585 -3.35376 -13.5128 0.933994 -7.32897 -7.39646 -0 -0 40.3612 -6.74349e-06 2.34736 8.17279 0.333891 2.41261e-06 -87.8757 -12.9343 8.7706 -81.2585 -0 -0 49.5989 7.19722e-07 11.2044 9.16553 1.80718 -6.66465e-07 -8.75361 
-117.84 73.432 -3.9573 -60.044 86.3806 -29.4974 0 -0 0 -11.1383 2.7594 15.815 17.0645 -14.5476 4.33009e-05 53.5268 -14.3198 27.079 -180 69.7459 -180 0.386994 4.24715 0.0143999 -8.99575 18.7111 -4.15054e-05 -56.2991 33.8495 16.936 9.80422e-06 -88.7601 -1.00177e-05 -1.1946 2.69232 -0.0281001 1.84195 -3.33716 -13.6008 0.86899 -7.60878 -7.79214 -0 -0 41.9001 -9.28487e-07 2.29734 10.4156 0.415498 -7.34257e-06 -88.0915 -12.7047 8.56771 -81.3326 -0 -0 51.41 4.20608e-06 11.2348 7.55801 1.49657 -3.97002e-07 -8.24833 
-116.78 73.343 -4.0351 -63.1894 86.466 -32.6531 0 -0 0 -11.5724 2.55779 16.1541 17.3671 -14.3198 4.74174e-05 54.1271 -14.2715 26.8755 -180 70.3245 -180 0.340899 4.29862 0.0128001 -9.32954 18.2264 1.96539e-05 -56.5045 32.4552 15.9564 4.1316e-06 -88.2514 -4.71991e-06 -0.850097 2.83235 -0.0210002 1.9188 -3.29077 -13.5804 0.850191 -7.91517 -8.26983 -0 -0 43.4631 1.12218e-05 2.1012 12.8093 0.465994 -4.84562e-06 -87.9561 -12.4617 8.3695 -81.3215 -0 -0 53.0603 4.56118e-06 11.3045 5.88239 1.17366 -2.9062e-06 -7.97945 
-115.73 73.266 -4.11 -66.6197 86.5262 -36.0798 0 -0 0 -11.978 2.34896 16.4655 17.6245 -14.0816 -3.18373e-05 54.7828 -14.1946 26.6585 -180 71.06 -180 0.310696 4.34268 0.0117997 -9.62497 17.7272 3.59367e-05 -56.7263 31.0648 14.9506 1.0621e-05 -87.7442 -1.10479e-05 -0.499203 2.98048 -0.0130001 1.9917 -3.20834 -13.4502 0.883191 -8.24221 -8.83215 -0 -0 45.0391 1.99026e-07 1.74832 15.3353 0.462498 -7.97557e-08 -87.3936 -12.2187 8.19129 -81.2551 -0 -0 54.5527 -3.93213e-06 11.3974 4.23838 0.853597 -5.74665e-07 -7.94706 
-114.71 73.199 -4.1804 -70.2769 86.5613 -39.7162 0 -0 0 -12.3605 2.12908 16.7444 17.8322 -13.8427 -1.48183e-05 55.4856 -14.0861 26.4335 -180 71.9524 -180 0.303 4.37605 0.0116001 -9.85726 17.2439 2.74433e-05 -56.9673 29.6577 13.9537 6.10977e-06 -87.2351 -6.63004e-06 -0.135402 3.13276 -0.00369996 2.06607 -3.08703 -13.2179 0.97042 -8.58482 -9.477 -0 -0 46.6193 2.22954e-06 1.23205 17.9355 0.379401 -3.45024e-06 -86.2953 -11.9884 8.0451 -81.1582 -0 -0 55.904 1.53782e-05 11.4954 2.70247 0.549393 5.36288e-09 -8.10918 
-113.72 73.142 -4.2457 -74.0918 86.5583 -43.482 0 -0 0 -12.7247 1.89327 16.9827 17.9962 -13.6039 2.75603e-05 56.2298 -13.9552 26.201 -180 72.9903 -180 0.3185 4.39714 0.0122001 -10.0297 16.7728 -1.66874e-05 -57.2236 28.2526 12.9658 0 -86.7637 0 0.249403 3.28201 0.00710006 2.14651 -2.92534 -12.8915 1.11122 -8.94222 -10.2087 -0 -0 48.2045 -1.98619e-06 0.5552 20.5511 0.194901 3.29176e-06 -84.6018 -11.7812 7.93771 -81.0502 -0 -0 57.131 6.74187e-06 11.5781 1.32794 0.271995 -6.57778e-07 -8.41963 
-112.74 73.095 -4.3056 -78.0111 86.5255 -47.3274 0 -0 0 -13.0755 1.63734 17.1805 18.1176 -13.369 -0.000161793 57.0064 -13.8072 25.9573 -180 74.1648 -180 0.353092 4.40391 0.0135997 -10.1485 16.3048 -4.05523e-05 -57.4877 26.8678 11.9863 2.14426e-06 -86.3164 -2.72778e-06 0.659691 3.42216 0.0196994 2.23573 -2.72565 -12.4868 1.30201 -9.31285 -11.0274 -0 -0 49.8034 1.01235e-06 -0.275201 23.0869 -0.107902 3.36853e-07 -82.2841 -11.6074 7.87191 -80.9483 -0 -0 58.2496 1.51315e-07 11.6281 0.137793 0.0283997 -3.19871e-08 -8.81727 
-111.79 73.059 -4.361 -82.0101 86.4726 -51.231 0 -0 0 -13.4173 1.35707 17.3449 18.205 -13.138 -1.21722e-05 57.8043 -13.646 25.707 -180 75.4578 -180 0.396799 4.39496 0.0152001 -10.2135 15.8454 -1.16856e-06 -57.7466 25.4988 11.0333 -3.11472e-06 -85.9297 2.90113e-06 1.09862 3.54883 0.0340012 2.33483 -2.49245 -12.0227 1.53727 -9.6967 -11.9322 -0 -0 51.4224 -8.8682e-07 -1.24488 25.4328 -0.534707 7.32515e-06 -79.3875 -11.4746 7.84834 -80.8558 -0 -0 59.2776 2.78135e-06 11.6318 -0.872206 -0.179598 1.32926e-09 -9.24283 
-110.86 73.033 -4.4127 -86.0448 86.4112 -55.1539 0 -0 0 -13.7511 1.05037 17.4886 18.2659 -12.9161 -0.000108498 58.6057 -13.4737 25.4481 -180 76.8533 -180 0.436489 4.3695 0.0166995 -10.2308 15.395 -7.2396e-05 -57.9894 24.1467 10.1201 -4.07966e-06 -85.5971 3.77759e-06 1.56385 3.65828 0.0498979 2.44189 -2.23225 -11.5193 1.81072 -10.0911 -12.9165 -0 -0 53.0751 6.36737e-06 -2.33305 27.472 -1.07681 1.01219e-06 -76.042 -11.3851 7.86078 -80.7742 -0 -0 60.2277 6.25863e-06 11.5833 -1.72811 -0.354198 3.00001e-07 -9.65182 
-109.96 73.017 -4.4619 -90.1342 86.339 -59.1209 0 -0 0 -14.0773 0.716847 17.6238 18.309 -12.7043 7.23605e-05 59.3958 -13.2906 25.184 -180 78.3172 -180 0.4582 4.32671 0.0173001 -10.2053 14.9595 1.92033e-05 -58.1992 22.7986 9.26987 0 -85.3138 0 2.04935 3.75063 0.067101 2.55176 -1.95275 -10.9983 2.11736 -10.4913 -13.98 -0 -0 54.7741 -1.81916e-05 -3.51195 29.0989 -1.70948 1.01998e-05 -72.4622 -11.3368 7.90332 -80.6949 -0 -0 61.1124 8.11434e-06 11.4805 -2.46968 -0.501401 -2.85459e-07 -10.0174 
-109.08 73.012 -4.5092 -94.2333 86.256 -63.0934 0 -0 0 -14.3939 0.361562 17.7603 18.3405 -12.497 3.14681e-05 60.1608 -13.11 24.9128 -180 79.8408 -180 0.443393 4.27455 0.0164998 -10.162 14.4916 -3.55231e-05 -58.3633 21.5105 8.44675 2.64692e-06 -85.1326 -3.19762e-06 2.53943 3.82026 0.0847022 2.65835 -1.66261 -10.4735 2.45237 -10.8886 -15.1156 -0 -0 56.534 3.5489e-05 -4.74377 30.2247 -2.39199 6.82519e-05 -68.7885 -11.3264 7.97202 -80.6102 -0 -0 61.9372 -6.29542e-06 11.3263 -3.14197 -0.628997 6.62969e-07 -10.3369 
-108.21 73.018 -4.5556 -98.3214 86.1536 -67.058 0 -0 0 -14.6937 -0.0127099 17.9138 18.3693 -12.3026 -8.11009e-05 60.8808 -12.9205 24.6451 -180 81.3897 -180 0.382297 4.20999 0.0140998 -10.0902 14.0409 7.61386e-05 -58.47 20.2124 7.71506 0 -85.0014 0 3.02217 3.8743 0.102203 2.75173 -1.36965 -9.9658 2.81258 -11.2741 -16.321 -0 -0 58.3625 2.69965e-06 -5.98943 30.7939 -3.07457 6.21132e-05 -65.2998 -11.3442 8.06003 -80.5082 -0 -0 62.7096 -5.96923e-06 11.1313 -3.78898 -0.744907 -1.15638e-06 -10.6154 
-107.36 73.034 -4.6017 -102.3 86.0382 -70.9217 0 -0 0 -14.973 -0.397854 18.092 18.3981 -12.1185 1.91631e-05 61.5414 -12.7299 24.383 -180 82.9534 -180 0.264703 4.13992 0.00960023 -10.0038 13.5903 -1.3111e-05 -58.5094 18.9262 7.06251 2.30853e-06 -84.9424 -2.52216e-06 3.47723 3.91434 0.118898 2.82302 -1.08089 -9.48616 3.19486 -11.6374 -17.59 -0 -0 60.264 2.23932e-05 -7.20515 30.7765 -3.70122 8.00307e-06 -62.1022 -11.3811 8.16472 -80.3801 -0 -0 63.4284 -1.04086e-05 10.9077 -4.44521 -0.855708 -1.50654e-07 -10.8724 
-106.53 73.058 -4.6478 -106.055 85.9009 -74.5749 0 -0 0 -15.2269 -0.784581 18.3003 18.4286 -11.9464 -5.31264e-05 62.1286 -12.5413 24.1328 -180 84.5076 -180 0.0865997 4.06897 0.00309997 -9.90689 13.1424 6.64221e-06 -58.476 17.6438 6.49416 1.47622e-06 -84.9328 -2.05995e-06 3.88547 3.94423 0.133805 2.86336 -0.802408 -9.04253 3.59675 -11.9677 -18.9226 -0 -0 62.2375 -5.17994e-05 -8.35036 30.1707 -4.21902 3.44348e-06 -59.2546 -11.4276 8.28547 -80.2189 -0 -0 64.0951 4.42234e-06 10.6691 -5.13289 -0.965599 2.98534e-07 -11.1308 
-105.72 73.092 -4.694 -109.465 85.7629 -77.8966 0 -0 0 -15.4494 -1.16482 18.5355 18.4647 -11.7823 -3.14059e-05 62.6332 -12.3576 23.8979 -180 86.0382 -180 -0.149998 4.00201 -0.00519994 -9.80261 12.698 4.14041e-05 -58.3698 16.3635 6.00953 1.49543e-06 -84.9973 -2.07905e-06 4.22807 3.96777 0.146502 2.86572 -0.538112 -8.63915 4.01577 -12.2541 -20.3153 -0 -0 64.2755 8.72374e-05 -9.39027 29.0009 -4.58418 3.08847e-05 -56.7284 -11.4732 8.42195 -80.0196 -0 -0 64.7119 -3.36452e-06 10.428 -5.86042 -1.07649 9.70591e-07 -11.4152 
-104.93 73.133 -4.7405 -112.431 85.5845 -80.7912 0 -0 0 -15.6396 -1.52913 18.7975 18.5015 -11.6291 -1.34657e-06 63.0497 -12.1835 23.6816 -180 87.5173 -180 -0.437695 3.94281 -0.0150999 -9.69111 12.2632 -9.43844e-06 -58.1944 15.0804 5.60658 0 -85.0949 0 4.48982 3.98943 0.156498 2.82616 -0.290603 -8.27711 4.44895 -12.4902 -21.7653 -0 -0 66.3589 -1.45363e-05 -10.3007 27.3214 -4.76845 4.48202e-05 -54.4637 -11.5127 8.57835 -79.7856 -0 -0 65.2768 -7.33213e-06 10.1954 -6.62167 -1.18815 5.94616e-06 -11.745 
